<svg width="35" height="35" viewBox="0 0 35 35" fill="none" xmlns="http://www.w3.org/2000/svg">
<path d="M12.7511 24.5023C15.7107 24.5023 18.4085 23.3943 20.4783 21.5829L22.7228 26.2834C22.7228 26.2834 23.1845 26.6594 23.819 27.2839C24.4687 27.8933 25.3232 28.7176 26.1424 29.5787L28.4221 31.9155L29.4361 33L32.9966 29.4394L31.9122 28.4255L29.5754 26.1457C28.7891 25.3926 28.0239 24.6179 27.2806 23.8224C26.6561 23.1878 26.28 22.7262 26.28 22.7262L21.5796 20.4817C23.4621 18.3464 24.5013 15.5978 24.5023 12.7511C24.5023 6.2729 19.2294 1 12.7511 1C6.2729 1 1 6.2729 1 12.7511C1 19.2294 6.2729 24.5023 12.7511 24.5023Z" stroke="white" stroke-width="2"/>
</svg>
