<svg width="36" height="36" viewBox="0 0 36 36" fill="none" xmlns="http://www.w3.org/2000/svg">
<path d="M34.0021 30.8393V18.4715C34.0022 17.611 33.8244 16.7596 33.4796 15.9694C33.1349 15.1791 32.6304 14.4668 31.9971 13.8758L20.1996 2.86395C19.6054 2.30914 18.8187 2 18.001 2C17.1833 2 16.3967 2.30914 15.8025 2.86395L4.00493 13.8758C3.37165 14.4668 2.86718 15.1791 2.52243 15.9694C2.17768 16.7596 1.99991 17.611 2 18.4715V30.8393C2 31.6776 2.33716 32.4815 2.93732 33.0743C3.53747 33.667 4.35146 34 5.20021 34H30.8019C31.6506 34 32.4646 33.667 33.0648 33.0743C33.6649 32.4815 34.0021 31.6776 34.0021 30.8393Z" stroke="white" stroke-width="2.66667" stroke-linecap="round" stroke-linejoin="round"/>
</svg>
