<svg width="33" height="36" viewBox="0 0 33 36" fill="none" xmlns="http://www.w3.org/2000/svg">
<path d="M26.1667 11.6017C26.1667 9.05517 25.1482 6.61294 23.3354 4.81227C21.5225 3.0116 19.0638 2 16.5 2C13.9362 2 11.4775 3.0116 9.66464 4.81227C7.85178 6.61294 6.83333 9.05517 6.83333 11.6017C6.83333 22.8037 2 26.0043 2 26.0043H31C31 26.0043 26.1667 22.8037 26.1667 11.6017Z" stroke="white" stroke-width="2.67" stroke-linecap="round" stroke-linejoin="round"/>
<path d="M19.2872 32.4053C19.004 32.8903 18.5974 33.2929 18.1082 33.5727C17.6191 33.8526 17.0645 33.9999 16.5 33.9999C15.9355 33.9999 15.3809 33.8526 14.8917 33.5727C14.4026 33.2929 13.996 32.8903 13.7128 32.4053" stroke="white" stroke-width="2.67" stroke-linecap="round" stroke-linejoin="round"/>
</svg>
