<svg width="23" height="32" viewBox="0 0 23 32" fill="none" xmlns="http://www.w3.org/2000/svg">
<mask id="path-1-inside-1_347_2785" fill="white">
<path d="M11.4286 2.28571C12.5588 2.28571 13.6636 2.62085 14.6033 3.24875C15.543 3.87664 16.2754 4.76909 16.7079 5.81324C17.1404 6.85739 17.2536 8.00634 17.0331 9.1148C16.8126 10.2233 16.2684 11.2415 15.4692 12.0406C14.67 12.8398 13.6519 13.384 12.5434 13.6045C11.4349 13.825 10.286 13.7118 9.24183 13.2793C8.19768 12.8468 7.30523 12.1144 6.67734 11.1747C6.04944 10.235 5.71431 9.13018 5.71431 8C5.71431 6.48448 6.31635 5.03103 7.38798 3.95939C8.45962 2.88775 9.91307 2.28571 11.4286 2.28571ZM11.4286 0C9.84634 0 8.29962 0.469192 6.98403 1.34824C5.66844 2.22729 4.64306 3.47672 4.03756 4.93853C3.43206 6.40034 3.27363 8.00887 3.58231 9.56072C3.89099 11.1126 4.65292 12.538 5.77174 13.6569C6.89056 14.7757 8.31602 15.5376 9.86787 15.8463C11.4197 16.155 13.0283 15.9965 14.4901 15.391C15.9519 14.7855 17.2013 13.7602 18.0803 12.4446C18.9594 11.129 19.4286 9.58225 19.4286 8C19.4286 5.87827 18.5857 3.84344 17.0854 2.34315C15.5852 0.842855 13.5503 0 11.4286 0Z"/>
</mask>
<path d="M11.4286 2.28571C12.5588 2.28571 13.6636 2.62085 14.6033 3.24875C15.543 3.87664 16.2754 4.76909 16.7079 5.81324C17.1404 6.85739 17.2536 8.00634 17.0331 9.1148C16.8126 10.2233 16.2684 11.2415 15.4692 12.0406C14.67 12.8398 13.6519 13.384 12.5434 13.6045C11.4349 13.825 10.286 13.7118 9.24183 13.2793C8.19768 12.8468 7.30523 12.1144 6.67734 11.1747C6.04944 10.235 5.71431 9.13018 5.71431 8C5.71431 6.48448 6.31635 5.03103 7.38798 3.95939C8.45962 2.88775 9.91307 2.28571 11.4286 2.28571ZM11.4286 0C9.84634 0 8.29962 0.469192 6.98403 1.34824C5.66844 2.22729 4.64306 3.47672 4.03756 4.93853C3.43206 6.40034 3.27363 8.00887 3.58231 9.56072C3.89099 11.1126 4.65292 12.538 5.77174 13.6569C6.89056 14.7757 8.31602 15.5376 9.86787 15.8463C11.4197 16.155 13.0283 15.9965 14.4901 15.391C15.9519 14.7855 17.2013 13.7602 18.0803 12.4446C18.9594 11.129 19.4286 9.58225 19.4286 8C19.4286 5.87827 18.5857 3.84344 17.0854 2.34315C15.5852 0.842855 13.5503 0 11.4286 0Z" fill="#FFFDFD"/>
<path d="M5.71431 8H1.71431H5.71431ZM11.4286 6.28571C11.7676 6.28571 12.0991 6.38626 12.381 6.57462L16.8256 -0.0771333C15.2281 -1.14455 13.3499 -1.71429 11.4286 -1.71429V6.28571ZM12.381 6.57462C12.6629 6.76299 12.8826 7.03073 13.0124 7.34397L20.4034 4.2825C19.6682 2.50745 18.4231 0.990285 16.8256 -0.0771333L12.381 6.57462ZM13.0124 7.34397C13.1421 7.65722 13.1761 8.0019 13.1099 8.33444L20.9562 9.89516C21.331 8.01078 21.1387 6.05756 20.4034 4.2825L13.0124 7.34397ZM13.1099 8.33444C13.0438 8.66698 12.8805 8.97244 12.6408 9.21218L18.2976 14.869C19.6562 13.5105 20.5814 11.7796 20.9562 9.89516L13.1099 8.33444ZM12.6408 9.21218C12.401 9.45193 12.0956 9.6152 11.763 9.68135L13.3238 17.5276C15.2081 17.1528 16.9391 16.2276 18.2976 14.869L12.6408 9.21218ZM11.763 9.68135C11.4305 9.74749 11.0858 9.71354 10.7726 9.58379L7.7111 16.9748C9.48615 17.7101 11.4394 17.9025 13.3238 17.5276L11.763 9.68135ZM10.7726 9.58379C10.4593 9.45404 10.1916 9.23432 10.0032 8.95241L3.35146 13.397C4.41888 14.9945 5.93604 16.2396 7.7111 16.9748L10.7726 9.58379ZM10.0032 8.95241C9.81485 8.67049 9.71431 8.33905 9.71431 8H1.71431C1.71431 9.9213 2.28404 11.7995 3.35146 13.397L10.0032 8.95241ZM9.71431 8C9.71431 7.54534 9.89492 7.10931 10.2164 6.78782L4.55956 1.13096C2.73777 2.95274 1.71431 5.42361 1.71431 8H9.71431ZM10.2164 6.78782C10.5379 6.46633 10.9739 6.28571 11.4286 6.28571V-1.71429C8.8522 -1.71429 6.38134 -0.690819 4.55956 1.13096L10.2164 6.78782ZM11.4286 -4C9.05522 -4 6.73514 -3.29621 4.76175 -1.97764L9.20631 4.67412C9.86411 4.2346 10.6375 4 11.4286 4V-4ZM4.76175 -1.97764C2.78836 -0.659059 1.25029 1.21509 0.342038 3.4078L7.73307 6.46927C8.03582 5.73836 8.54851 5.11365 9.20631 4.67412L4.76175 -1.97764ZM0.342038 3.4078C-0.566214 5.60051 -0.803854 8.01331 -0.340831 10.3411L7.50545 8.78036C7.35111 8.00444 7.43032 7.20017 7.73307 6.46927L0.342038 3.4078ZM-0.340831 10.3411C0.122192 12.6689 1.26508 14.8071 2.94331 16.4853L8.60017 10.8284C8.04076 10.269 7.65979 9.55628 7.50545 8.78036L-0.340831 10.3411ZM2.94331 16.4853C4.62154 18.1635 6.75974 19.3064 9.08751 19.7694L10.6482 11.9231C9.87231 11.7688 9.15958 11.3878 8.60017 10.8284L2.94331 16.4853ZM9.08751 19.7694C11.4153 20.2324 13.8281 19.9948 16.0208 19.0866L12.9593 11.6955C12.2284 11.9983 11.4242 12.0775 10.6482 11.9231L9.08751 19.7694ZM16.0208 19.0866C18.2135 18.1783 20.0877 16.6402 21.4062 14.6668L14.7545 10.2223C14.3149 10.8801 13.6902 11.3928 12.9593 11.6955L16.0208 19.0866ZM21.4062 14.6668C22.7248 12.6935 23.4286 10.3734 23.4286 8H15.4286C15.4286 8.79113 15.194 9.56449 14.7545 10.2223L21.4062 14.6668ZM23.4286 8C23.4286 4.8174 22.1643 1.76515 19.9139 -0.485281L14.257 5.17157C15.0072 5.92172 15.4286 6.93913 15.4286 8H23.4286ZM19.9139 -0.485281C17.6634 -2.73572 14.6112 -4 11.4286 -4V4C12.4895 4 13.5069 4.42143 14.257 5.17157L19.9139 -0.485281Z" fill="white" mask="url(#path-1-inside-1_347_2785)"/>
<mask id="path-3-inside-2_347_2785" fill="white">
<path d="M22.8571 31.9999H20.5714V26.2856C20.5714 24.7701 19.9694 23.3167 18.8978 22.245C17.8261 21.1734 16.3727 20.5714 14.8571 20.5714H8C6.48448 20.5714 5.03103 21.1734 3.95939 22.245C2.88775 23.3167 2.28571 24.7701 2.28571 26.2856V31.9999H0V26.2856C0 24.1639 0.842855 22.1291 2.34315 20.6288C3.84344 19.1285 5.87827 18.2856 8 18.2856H14.8571C16.9789 18.2856 19.0137 19.1285 20.514 20.6288C22.0143 22.1291 22.8571 24.1639 22.8571 26.2856V31.9999Z"/>
</mask>
<path d="M22.8571 31.9999H20.5714V26.2856C20.5714 24.7701 19.9694 23.3167 18.8978 22.245C17.8261 21.1734 16.3727 20.5714 14.8571 20.5714H8C6.48448 20.5714 5.03103 21.1734 3.95939 22.245C2.88775 23.3167 2.28571 24.7701 2.28571 26.2856V31.9999H0V26.2856C0 24.1639 0.842855 22.1291 2.34315 20.6288C3.84344 19.1285 5.87827 18.2856 8 18.2856H14.8571C16.9789 18.2856 19.0137 19.1285 20.514 20.6288C22.0143 22.1291 22.8571 24.1639 22.8571 26.2856V31.9999Z" fill="#FFFDFD"/>
<path d="M22.8571 31.9999V40.9999H31.8571V31.9999H22.8571ZM20.5714 31.9999H11.5714V40.9999H20.5714V31.9999ZM2.28571 26.2856H-6.71429H2.28571ZM2.28571 31.9999V40.9999H11.2857V31.9999H2.28571ZM0 31.9999H-9V40.9999H0V31.9999ZM8 18.2856V9.28564V18.2856ZM22.8571 22.9999H20.5714V40.9999H22.8571V22.9999ZM29.5714 31.9999V26.2856H11.5714V31.9999H29.5714ZM29.5714 26.2856C29.5714 22.3832 28.0212 18.6405 25.2617 15.8811L12.5338 28.609C11.9176 27.9928 11.5714 27.1571 11.5714 26.2856H29.5714ZM25.2617 15.8811C22.5022 13.1216 18.7596 11.5714 14.8571 11.5714V29.5714C13.9857 29.5714 13.15 29.2252 12.5338 28.609L25.2617 15.8811ZM14.8571 11.5714H8V29.5714H14.8571V11.5714ZM8 11.5714C4.09753 11.5714 0.354892 13.1216 -2.40457 15.8811L10.3234 28.609C9.70716 29.2252 8.87143 29.5714 8 29.5714V11.5714ZM-2.40457 15.8811C-5.16404 18.6405 -6.71429 22.3832 -6.71429 26.2856H11.2857C11.2857 27.1571 10.9395 27.9928 10.3234 28.609L-2.40457 15.8811ZM-6.71429 26.2856V31.9999H11.2857V26.2856H-6.71429ZM2.28571 22.9999H0V40.9999H2.28571V22.9999ZM9 31.9999V26.2856H-9V31.9999H9ZM9 26.2856C9 26.5509 8.89464 26.8052 8.70711 26.9928L-4.02082 14.2648C-7.20893 17.4529 -9 21.777 -9 26.2856H9ZM8.70711 26.9928C8.51957 27.1803 8.26522 27.2856 8 27.2856V9.28564C3.49132 9.28564 -0.832698 11.0767 -4.02082 14.2648L8.70711 26.9928ZM8 27.2856H14.8571V9.28564H8V27.2856ZM14.8571 27.2856C14.5919 27.2856 14.3376 27.1803 14.15 26.9928L26.878 14.2648C23.6898 11.0767 19.3658 9.28564 14.8571 9.28564V27.2856ZM14.15 26.9928C13.9625 26.8052 13.8571 26.5509 13.8571 26.2856H31.8571C31.8571 21.777 30.0661 17.4529 26.878 14.2648L14.15 26.9928ZM13.8571 26.2856V31.9999H31.8571V26.2856H13.8571Z" fill="white" mask="url(#path-3-inside-2_347_2785)"/>
</svg>
