<svg width="26" height="32" viewBox="0 0 26 32" fill="none" xmlns="http://www.w3.org/2000/svg">
<path d="M2.18326 2.33561C2.18326 2.68093 2.18326 2.99954 2.18326 3.31816C2.20922 4.71601 3.30074 5.68014 4.85441 5.71882C6.60126 5.76118 7.5858 4.5917 7.68031 3.39367C7.75509 2.46913 8.82999 1.96082 9.70133 2.48939C9.9267 2.62752 10.0669 2.91022 10.1749 3.15241C10.2673 3.3596 10.2258 3.61283 10.2975 3.82831C10.6142 4.7906 11.2467 5.50518 12.4203 5.67001C13.5076 5.82564 14.5306 5.62489 15.1714 4.7731C15.4892 4.35043 15.6346 3.797 15.7374 3.28409C15.8714 2.61371 16.2411 2.29509 17.0792 2.31167C17.8062 2.32548 18.2216 2.68001 18.259 3.33566C18.3442 4.7289 19.5333 5.72434 21.0974 5.70961C22.6199 5.69488 23.7831 4.67181 23.8391 3.28961C23.8516 2.971 23.8391 2.6533 23.8391 2.33193C25.1249 2.39639 25.9381 3.09071 25.9734 4.15982C25.9962 4.84309 25.9329 5.5282 25.9339 6.21239C25.9339 7.06602 25.9775 7.92057 25.9786 8.77512C25.9827 13.477 25.9827 18.1792 25.9786 22.8816C25.9786 25.2013 25.9464 27.5218 25.9993 29.8405C26.0315 31.2421 24.9037 32.0073 23.5681 31.9999C16.5385 31.9612 9.50816 31.9612 2.47717 31.9999C0.799904 32.01 -0.0153592 31.0956 0.000219044 29.765C0.0459153 25.437 0.0251443 21.0998 0.0261828 16.7672C0.0261828 12.5749 0.0261828 8.38253 0.0261828 4.19021C0.0292985 3.08887 0.813405 2.38902 2.18326 2.33561ZM13.0257 22.6026C13.1556 22.8015 13.2397 22.9295 13.3217 23.0575C13.6458 23.5603 13.9511 24.0705 14.2969 24.5631C14.6916 25.1212 15.1132 25.6681 15.5432 26.2041C15.7375 26.4719 15.9707 26.7159 16.2369 26.9297C16.7489 27.298 17.4458 27.2336 17.9267 26.8192C18.4459 26.3689 18.5363 25.8201 18.1167 25.2878C17.0013 23.8722 15.8745 22.4642 14.7362 21.0639C14.5628 20.8502 14.5285 20.6955 14.7155 20.4663C15.3126 19.736 15.888 18.9929 16.453 18.2433C16.5425 18.1056 16.6732 17.9924 16.8305 17.9162C16.9879 17.84 17.166 17.8037 17.3451 17.8114C18.3639 17.805 19.2757 17.5186 19.9622 16.816C20.333 16.4366 20.6653 16.0277 21.008 15.6263C21.7558 14.7508 22.5001 13.8723 23.2409 12.9908C23.4206 12.7753 23.3998 12.569 23.1433 12.3931C22.8868 12.2173 22.6645 12.209 22.4631 12.4254C22.2616 12.6418 22.0757 12.8941 21.8804 13.128C21.3175 13.8048 20.765 14.489 20.1772 15.1493C20.0796 15.2607 19.8314 15.2671 19.6527 15.3215C19.6527 15.1575 19.5935 14.9531 19.6787 14.8371C20.0183 14.3601 20.3974 13.9079 20.7733 13.4475C21.1316 13.0175 21.519 12.6049 21.868 12.1694C22.0528 11.9392 22.0923 11.6804 21.788 11.4824C21.4837 11.2844 21.2417 11.4069 21.0465 11.6454C21.006 11.6951 20.9696 11.7467 20.9291 11.7964C20.2395 12.6381 19.5624 13.488 18.852 14.3131C18.7482 14.4384 18.4657 14.4466 18.2663 14.5093C18.2767 14.3306 18.2548 14.1455 18.3068 13.9779C18.3452 13.8536 18.4792 13.7523 18.5706 13.6418C19.2228 12.8527 19.8708 12.0607 20.5303 11.2771C20.7152 11.0561 20.7474 10.8609 20.4929 10.6794C20.2541 10.5091 20.01 10.5054 19.8179 10.7356C19.0805 11.6196 18.3504 12.5092 17.6172 13.395C17.4635 13.5792 17.3056 13.8159 16.9992 13.6326C16.6929 13.4494 16.8715 13.2597 17.0377 13.0617C17.7591 12.2022 18.4722 11.3391 19.1771 10.4723C19.4689 10.1113 19.3941 9.85252 18.9953 9.69321C18.6578 9.55877 18.4823 9.75031 18.313 9.95473C17.4759 10.9677 16.6513 11.9806 15.7997 12.9834C14.9481 13.9862 14.5244 15.0618 14.9896 16.3243C15.0254 16.4298 15.0366 16.5407 15.0227 16.6502C15.0088 16.7598 14.97 16.8656 14.9086 16.9615C14.3478 17.6567 13.734 18.3188 13.1047 19.0334C12.7557 18.6117 12.439 18.1927 12.0807 17.8059C11.6372 17.328 11.2706 16.8611 11.8044 16.2552C11.8241 16.2331 11.82 16.1963 11.8293 16.1631C12.5335 13.7836 10.5072 10.813 7.75924 10.1951C5.90854 9.77885 4.37668 10.5634 4.05784 12.2209C3.68085 14.1842 4.48884 15.8113 6.20141 17.0637C7.13611 17.747 8.19959 18.1789 9.4687 18.0555C9.59021 18.0435 9.78026 18.1678 9.85815 18.2746C10.4553 19.0776 11.0338 19.8916 11.6143 20.6965C11.254 21.1265 10.9237 21.5363 10.5758 21.9332C9.59436 23.0511 8.59216 24.1552 7.62319 25.2814C7.17454 25.8035 7.28255 26.4002 7.8309 26.8468C8.34187 27.2566 9.1187 27.3174 9.56009 26.88C10.1261 26.3192 10.609 25.6893 11.1034 25.0733C11.7431 24.2767 12.3548 23.4682 13.0257 22.6026Z" fill="white"/>
<path d="M22.1931 2.20392C22.1931 2.55661 22.2045 2.90929 22.1931 3.26106C22.1681 3.8679 21.7039 4.30438 21.0818 4.32188C20.7668 4.33067 20.4605 4.22946 20.2287 4.04002C19.997 3.85058 19.8585 3.58806 19.8428 3.30894C19.8085 2.56029 19.8096 1.80796 19.8428 1.05838C19.8709 0.413787 20.4057 -0.0134875 21.0766 0.000325277C21.7278 0.0150589 22.1713 0.444175 22.1941 1.0989C22.2024 1.46908 22.192 1.8365 22.1931 2.20392Z" fill="white"/>
<path d="M6.12043 2.19742C6.12043 2.53353 6.12874 2.86964 6.12043 3.21036C6.10278 3.83469 5.59181 4.31538 4.94687 4.32459C4.30193 4.33379 3.76708 3.84482 3.75565 3.22601C3.74319 2.52432 3.74215 1.82171 3.75565 1.1191C3.76915 0.474506 4.27493 0.0140809 4.92506 0.00763494C5.57519 0.00118898 6.08824 0.463456 6.11732 1.09884C6.12978 1.46442 6.12043 1.83184 6.12043 2.19742Z" fill="white"/>
<path d="M11.821 2.1635C11.821 1.78043 11.8086 1.39735 11.821 1.01428C11.8257 0.743891 11.9505 0.486046 12.1682 0.296736C12.386 0.107427 12.6792 0.00194068 12.9842 0.00318471C13.2799 0.0047281 13.5634 0.10788 13.7751 0.290949C13.9868 0.474018 14.1102 0.722739 14.1194 0.984812C14.1422 1.76569 14.1422 2.54658 14.1194 3.32746C14.117 3.59781 13.9936 3.85627 13.7764 4.04598C13.5591 4.23568 13.2658 4.34109 12.9609 4.33901C12.6559 4.33694 12.3644 4.22755 12.1505 4.03491C11.9365 3.84227 11.8177 3.58216 11.82 3.3118C11.8086 2.92965 11.821 2.54565 11.821 2.1635Z" fill="white"/>
</svg>
