<svg width="128" height="128" viewBox="0 0 128 128" fill="none" xmlns="http://www.w3.org/2000/svg">
<path d="M108 0.992676H20C8.95431 0.992676 0 9.94699 0 20.9927V108C0 119.046 8.95431 128 20 128H108C119.046 128 128 119.046 128 108V20.9927C128 9.94698 119.046 0.992676 108 0.992676Z" fill="#F0BC00"/>
<path d="M108 0.992676H20C8.95431 0.992676 0 9.94699 0 20.9927V108C0 119.046 8.95431 128 20 128H108C119.046 128 128 119.046 128 108V20.9927C128 9.94698 119.046 0.992676 108 0.992676Z" fill="#F0BC00"/>
<g clip-path="url(#clip0_661_5194)">
<path d="M86.5586 75.0732L79.4541 75L72.2764 60.9375C70.9824 58.374 69.7739 56.4697 68.6509 55.2246C67.5522 53.9551 66.124 53.0396 64.3662 52.478C62.6328 51.9165 60.228 51.6357 57.1519 51.6357H52.8306V75H46.5684V22.229H52.8306V46.0327H57.1519C60.0327 46.0327 62.3521 45.6665 64.1099 44.9341C65.8677 44.2017 67.3203 43.1152 68.4678 41.6748C69.6152 40.21 70.8359 38.1226 72.1299 35.4126L78.4653 22.2656L85.5698 22.1924L79.4175 34.9365C77.9771 37.9395 76.7197 40.2588 75.6455 41.8945C74.5957 43.5059 73.3018 44.8608 71.7637 45.9595C70.25 47.0581 68.2603 47.9248 65.7944 48.5596C68.0405 49.1211 69.9082 49.9146 71.3975 50.9399C72.9111 51.9409 74.2539 53.2471 75.4258 54.8584C76.5977 56.4453 77.9038 58.6182 79.3442 61.377L86.5586 75.0732Z" fill="black"/>
<path d="M86.5586 75.0732L86.538 77.0731L89.8907 77.1077L88.3281 74.1412L86.5586 75.0732ZM79.4541 75L77.6727 75.9092L78.223 76.9874L79.4335 76.9999L79.4541 75ZM72.2764 60.9375L70.4909 61.8387L70.495 61.8467L72.2764 60.9375ZM68.6509 55.2246L67.1385 56.5334L67.152 56.5489L67.1657 56.5641L68.6509 55.2246ZM64.3662 52.478L63.7499 54.3807L63.7576 54.3832L64.3662 52.478ZM52.8306 51.6357V49.6357H50.8306V51.6357H52.8306ZM52.8306 75V77H54.8306V75H52.8306ZM46.5684 75H44.5684V77H46.5684V75ZM46.5684 22.229V20.229H44.5684V22.229H46.5684ZM52.8306 22.229H54.8306V20.229H52.8306V22.229ZM52.8306 46.0327H50.8306V48.0327H52.8306V46.0327ZM68.4678 41.6748L70.0321 42.921L70.0372 42.9146L70.0422 42.9081L68.4678 41.6748ZM72.1299 35.4126L70.3282 34.5444L70.3251 34.5508L72.1299 35.4126ZM78.4653 22.2656L78.4447 20.2657L77.2028 20.2785L76.6636 21.3974L78.4653 22.2656ZM85.5698 22.1924L87.3709 23.0619L88.7722 20.1593L85.5492 20.1925L85.5698 22.1924ZM79.4175 34.9365L77.6164 34.067L77.6142 34.0715L79.4175 34.9365ZM75.6455 41.8945L73.9738 40.7967L73.9698 40.8028L75.6455 41.8945ZM71.7637 45.9595L70.6012 44.332L70.595 44.3364L70.5889 44.3409L71.7637 45.9595ZM65.7944 48.5596L65.2958 46.6227L65.3094 50.4999L65.7944 48.5596ZM71.3975 50.9399L70.2633 52.5872L70.2787 52.5978L70.2943 52.6082L71.3975 50.9399ZM75.4258 54.8584L73.8083 56.0347L73.8126 56.0406L73.8169 56.0465L75.4258 54.8584ZM79.3442 61.377L77.5713 62.3026L77.5747 62.309L79.3442 61.377ZM86.5792 73.0733L79.4747 73.0001L79.4335 76.9999L86.538 77.0731L86.5792 73.0733ZM81.2355 74.0908L74.0577 60.0283L70.495 61.8467L77.6727 75.9092L81.2355 74.0908ZM74.0618 60.0363C72.736 57.4096 71.4333 55.3233 70.136 53.8851L67.1657 56.5641C68.1146 57.6161 69.2289 59.3385 70.4909 61.8387L74.0618 60.0363ZM70.1632 53.9159C68.8004 52.341 67.0471 51.2349 64.9748 50.5729L63.7576 54.3832C65.2009 54.8442 66.3041 55.5691 67.1385 56.5334L70.1632 53.9159ZM64.9826 50.5754C62.9596 49.92 60.3143 49.6357 57.1519 49.6357V53.6357C60.1418 53.6357 62.306 53.913 63.7499 54.3807L64.9826 50.5754ZM57.1519 49.6357H52.8306V53.6357H57.1519V49.6357ZM50.8306 51.6357V75H54.8306V51.6357H50.8306ZM52.8306 73H46.5684V77H52.8306V73ZM48.5684 75V22.229H44.5684V75H48.5684ZM46.5684 24.229H52.8306V20.229H46.5684V24.229ZM50.8306 22.229V46.0327H54.8306V22.229H50.8306ZM52.8306 48.0327H57.1519V44.0327H52.8306V48.0327ZM57.1519 48.0327C60.1745 48.0327 62.7856 47.6525 64.8791 46.7802L63.3406 43.0879C61.9185 43.6805 59.8909 44.0327 57.1519 44.0327V48.0327ZM64.8791 46.7802C66.9373 45.9227 68.6671 44.6344 70.0321 42.921L66.9035 40.4286C65.9735 41.596 64.7981 42.4807 63.3406 43.0879L64.8791 46.7802ZM70.0422 42.9081C71.3175 41.2801 72.6111 39.0464 73.9347 36.2744L70.3251 34.5508C69.0608 37.1987 67.913 39.1398 66.8933 40.4415L70.0422 42.9081ZM73.9316 36.2808L80.267 23.1339L76.6636 21.3974L70.3282 34.5444L73.9316 36.2808ZM78.4859 24.2655L85.5904 24.1923L85.5492 20.1925L78.4447 20.2657L78.4859 24.2655ZM83.7687 21.3229L77.6164 34.067L81.2186 35.806L87.3709 23.0619L83.7687 21.3229ZM77.6142 34.0715C76.1896 37.0414 74.9768 39.2694 73.9738 40.7967L77.3172 42.9924C78.4627 41.2482 79.7645 38.8375 81.2208 35.8015L77.6142 34.0715ZM73.9698 40.8028C73.0537 42.2088 71.9327 43.3809 70.6012 44.332L72.9261 47.5869C74.6708 46.3407 76.1377 44.8029 77.3212 42.9863L73.9698 40.8028ZM70.5889 44.3409C69.3376 45.249 67.6006 46.0294 65.2958 46.6227L66.293 50.4964C68.9199 49.8202 71.1624 48.8672 72.9385 47.5781L70.5889 44.3409ZM65.3094 50.4999C67.3854 51.0189 69.0177 51.7296 70.2633 52.5872L72.5317 49.2926C70.7987 48.0995 68.6957 47.2233 66.2795 46.6193L65.3094 50.4999ZM70.2943 52.6082C71.5899 53.4649 72.7633 54.5979 73.8083 56.0347L77.0433 53.6821C75.7445 51.8963 74.2324 50.4169 72.5006 49.2717L70.2943 52.6082ZM73.8169 56.0465C74.9029 57.5171 76.1548 59.5896 77.5714 62.3026L81.1171 60.4513C79.6528 57.6468 78.2924 55.3736 77.0346 53.6703L73.8169 56.0465ZM77.5747 62.309L84.7891 76.0053L88.3281 74.1412L81.1138 60.4449L77.5747 62.309Z" fill="black"/>
</g>
<g clip-path="url(#clip1_661_5194)">
<path d="M106.538 82.5073C106.538 82.5073 90.835 96.0059 62.6385 95.909C34.4425 95.8111 18.739 82.5073 18.739 82.5073C18.739 82.5073 34.5926 105.652 62.6385 105.667C90.6839 105.684 106.538 82.5073 106.538 82.5073Z" fill="black"/>
<path d="M23.412 75.6269C23.412 75.6269 18.9489 76.5115 15.6541 79.8277C12.3556 83.142 11.4726 87.6289 11.4726 87.6289C8.1758 84.3145 8.1758 78.9412 11.4726 75.6269C14.7704 72.3125 20.1152 72.3125 23.412 75.6269Z" fill="black"/>
<path d="M101.865 75.6269C101.865 75.6269 106.328 76.5115 109.625 79.8277C112.922 83.142 113.804 87.6289 113.804 87.6289C117.1 84.3145 117.1 78.9412 113.804 75.6269C110.505 72.3125 105.16 72.3125 101.865 75.6269Z" fill="black"/>
<path d="M98.2219 88.7943C97.868 88.628 100.044 87.1996 99.966 87.6031C99.318 89.9879 96.4393 89.2461 95.4668 91.0975C95.2497 91.5192 94.1836 90.6758 93.9668 91.0972C89.9397 97.9147 83.3534 100.742 78.4205 102.196C77.9958 102.342 77.5301 102.432 77.1544 102.541C72.9952 103.503 69.9307 103.384 69.8404 103.366C69.5209 103.346 69.2207 103.657 69.2406 103.988C69.2456 104.073 69.2717 104.159 69.3132 104.241C69.5499 104.706 69.5151 104.673 70.037 104.695C74.4874 104.888 79.7403 105.98 82.4158 109.537L86.6593 115.18C90.6438 120.478 97.7272 121.985 102.459 118.437C107.19 114.889 107.758 107.731 103.732 102.378L98.1172 94.9123C96.2289 92.4014 98.1578 91.136 98.9662 88.1023C99.0369 87.7909 98.5757 88.9606 98.2219 88.7943ZM101.999 103.1C105.527 107.792 105.697 113.436 101.502 116.582C97.3068 119.727 91.5295 118.275 88.0015 113.583L83.2367 107.591L83.0503 107.39C81.2839 105.489 81.9282 102.467 84.2362 101.28C85.9482 100.399 88.2861 100.607 89.4429 102.145L94.0845 108.317C94.2048 108.477 94.3188 108.526 94.4533 108.534C94.8003 108.554 95.1503 108.449 95.3468 108.163C95.5527 107.863 95.3763 107.438 95.1488 107.154L90.4278 101.257C89.2748 99.817 89.403 97.8483 90.7043 96.541C92.5046 94.7324 95.8706 94.6783 97.1103 96.9089L97.3411 97.3242C97.4457 97.5124 97.5669 97.6908 97.7034 97.8574L101.999 103.1Z" fill="black"/>
</g>
<defs>
<clipPath id="clip0_661_5194">
<rect width="128" height="91.2867" fill="white"/>
</clipPath>
<clipPath id="clip1_661_5194">
<rect width="110" height="56.1402" fill="white" transform="translate(9 71.4512)"/>
</clipPath>
</defs>
</svg>
